solid rocket_exterior_no_booster - fin2-1
   facet normal 2.290393e-001 -9.734172e-001 1.603545e-015
      outer loop
         vertex 1.944758e-001 3.160447e-002 1.371382e-001
         vertex 2.794758e-001 5.160447e-002 1.371382e-001
         vertex 1.944758e-001 3.160447e-002 1.376382e-001
      endloop
   endfacet
   facet normal 2.290393e-001 -9.734172e-001 1.603545e-015
      outer loop
         vertex 1.944758e-001 3.160447e-002 1.376382e-001
         vertex 2.794758e-001 5.160447e-002 1.371382e-001
         vertex 2.794758e-001 5.160447e-002 1.376382e-001
      endloop
   endfacet
   facet normal -1.000000e+000 1.734723e-018 -6.927451e-015
      outer loop
         vertex 1.944758e-001 1.716045e-001 1.376382e-001
         vertex 1.944758e-001 1.716045e-001 1.371382e-001
         vertex 1.944758e-001 1.484008e-001 1.398882e-001
      endloop
   endfacet
   facet normal -1.000000e+000 1.734723e-018 -6.927451e-015
      outer loop
         vertex 1.944758e-001 1.484008e-001 1.398882e-001
         vertex 1.944758e-001 1.716045e-001 1.371382e-001
         vertex 1.944758e-001 1.484008e-001 1.348882e-001
      endloop
   endfacet
   facet normal -1.000000e+000 1.734723e-018 -6.927451e-015
      outer loop
         vertex 1.944758e-001 1.484008e-001 1.398882e-001
         vertex 1.944758e-001 1.484008e-001 1.348882e-001
         vertex 1.944758e-001 5.215064e-002 1.398882e-001
      endloop
   endfacet
   facet normal -1.000000e+000 1.734723e-018 -6.927451e-015
      outer loop
         vertex 1.944758e-001 5.215064e-002 1.398882e-001
         vertex 1.944758e-001 1.484008e-001 1.348882e-001
         vertex 1.944758e-001 5.215064e-002 1.348882e-001
      endloop
   endfacet
   facet normal -1.000000e+000 1.734723e-018 -6.927451e-015
      outer loop
         vertex 1.944758e-001 5.215064e-002 1.398882e-001
         vertex 1.944758e-001 5.215064e-002 1.348882e-001
         vertex 1.944758e-001 3.160447e-002 1.376382e-001
      endloop
   endfacet
   facet normal -1.000000e+000 1.734723e-018 -6.927451e-015
      outer loop
         vertex 1.944758e-001 3.160447e-002 1.376382e-001
         vertex 1.944758e-001 5.215064e-002 1.348882e-001
         vertex 1.944758e-001 3.160447e-002 1.371382e-001
      endloop
   endfacet
   facet normal 5.070201e-001 8.619342e-001 3.497405e-015
      outer loop
         vertex 2.794758e-001 1.216045e-001 1.371382e-001
         vertex 1.944758e-001 1.716045e-001 1.371382e-001
         vertex 2.794758e-001 1.216045e-001 1.376382e-001
      endloop
   endfacet
   facet normal 5.070201e-001 8.619342e-001 3.497405e-015
      outer loop
         vertex 2.794758e-001 1.216045e-001 1.376382e-001
         vertex 1.944758e-001 1.716045e-001 1.371382e-001
         vertex 1.944758e-001 1.716045e-001 1.376382e-001
      endloop
   endfacet
   facet normal -6.927451e-015 0.000000e+000 1.000000e+000
      outer loop
         vertex 2.594758e-001 1.101656e-001 1.398882e-001
         vertex 1.944758e-001 1.484008e-001 1.398882e-001
         vertex 2.594758e-001 6.744476e-002 1.398882e-001
      endloop
   endfacet
   facet normal -6.927451e-015 0.000000e+000 1.000000e+000
      outer loop
         vertex 2.594758e-001 6.744476e-002 1.398882e-001
         vertex 1.944758e-001 1.484008e-001 1.398882e-001
         vertex 1.944758e-001 5.215064e-002 1.398882e-001
      endloop
   endfacet
   facet normal 1.000000e+000 1.965194e-016 6.927451e-015
      outer loop
         vertex 2.794758e-001 5.160447e-002 1.376382e-001
         vertex 2.794758e-001 5.160447e-002 1.371382e-001
         vertex 2.794758e-001 1.216045e-001 1.376382e-001
      endloop
   endfacet
   facet normal 1.000000e+000 1.965194e-016 6.927451e-015
      outer loop
         vertex 2.794758e-001 1.216045e-001 1.376382e-001
         vertex 2.794758e-001 5.160447e-002 1.371382e-001
         vertex 2.794758e-001 1.216045e-001 1.371382e-001
      endloop
   endfacet
   facet normal 6.927451e-015 0.000000e+000 -1.000000e+000
      outer loop
         vertex 1.944758e-001 5.215064e-002 1.348882e-001
         vertex 1.944758e-001 1.484008e-001 1.348882e-001
         vertex 2.594758e-001 6.744476e-002 1.348882e-001
      endloop
   endfacet
   facet normal 6.927451e-015 0.000000e+000 -1.000000e+000
      outer loop
         vertex 2.594758e-001 6.744476e-002 1.348882e-001
         vertex 1.944758e-001 1.484008e-001 1.348882e-001
         vertex 2.594758e-001 1.101656e-001 1.348882e-001
      endloop
   endfacet
   facet normal 2.560540e-002 -1.088229e-001 -9.937313e-001
      outer loop
         vertex 2.594758e-001 6.744476e-002 1.348882e-001
         vertex 2.794758e-001 5.160447e-002 1.371382e-001
         vertex 1.944758e-001 5.215064e-002 1.348882e-001
      endloop
   endfacet
   facet normal 2.560540e-002 -1.088229e-001 -9.937313e-001
      outer loop
         vertex 1.944758e-001 5.215064e-002 1.348882e-001
         vertex 2.794758e-001 5.160447e-002 1.371382e-001
         vertex 1.944758e-001 3.160447e-002 1.371382e-001
      endloop
   endfacet
   facet normal 5.668220e-002 9.635974e-002 -9.937313e-001
      outer loop
         vertex 2.794758e-001 1.216045e-001 1.371382e-001
         vertex 2.594758e-001 1.101656e-001 1.348882e-001
         vertex 1.944758e-001 1.716045e-001 1.371382e-001
      endloop
   endfacet
   facet normal 5.668220e-002 9.635974e-002 -9.937313e-001
      outer loop
         vertex 1.944758e-001 1.716045e-001 1.371382e-001
         vertex 2.594758e-001 1.101656e-001 1.348882e-001
         vertex 1.944758e-001 1.484008e-001 1.348882e-001
      endloop
   endfacet
   facet normal 1.117948e-001 2.196984e-017 -9.937313e-001
      outer loop
         vertex 2.794758e-001 1.216045e-001 1.371382e-001
         vertex 2.794758e-001 5.160447e-002 1.371382e-001
         vertex 2.594758e-001 1.101656e-001 1.348882e-001
      endloop
   endfacet
   facet normal 1.117948e-001 2.196984e-017 -9.937313e-001
      outer loop
         vertex 2.594758e-001 1.101656e-001 1.348882e-001
         vertex 2.794758e-001 5.160447e-002 1.371382e-001
         vertex 2.594758e-001 6.744476e-002 1.348882e-001
      endloop
   endfacet
   facet normal 2.560540e-002 -1.088229e-001 9.937313e-001
      outer loop
         vertex 2.794758e-001 5.160447e-002 1.376382e-001
         vertex 2.594758e-001 6.744476e-002 1.398882e-001
         vertex 1.944758e-001 3.160447e-002 1.376382e-001
      endloop
   endfacet
   facet normal 2.560540e-002 -1.088229e-001 9.937313e-001
      outer loop
         vertex 1.944758e-001 3.160447e-002 1.376382e-001
         vertex 2.594758e-001 6.744476e-002 1.398882e-001
         vertex 1.944758e-001 5.215064e-002 1.398882e-001
      endloop
   endfacet
   facet normal 5.668220e-002 9.635974e-002 9.937313e-001
      outer loop
         vertex 2.594758e-001 1.101656e-001 1.398882e-001
         vertex 2.794758e-001 1.216045e-001 1.376382e-001
         vertex 1.944758e-001 1.484008e-001 1.398882e-001
      endloop
   endfacet
   facet normal 5.668220e-002 9.635974e-002 9.937313e-001
      outer loop
         vertex 1.944758e-001 1.484008e-001 1.398882e-001
         vertex 2.794758e-001 1.216045e-001 1.376382e-001
         vertex 1.944758e-001 1.716045e-001 1.376382e-001
      endloop
   endfacet
   facet normal 1.117948e-001 2.196984e-017 9.937313e-001
      outer loop
         vertex 2.594758e-001 1.101656e-001 1.398882e-001
         vertex 2.594758e-001 6.744476e-002 1.398882e-001
         vertex 2.794758e-001 1.216045e-001 1.376382e-001
      endloop
   endfacet
   facet normal 1.117948e-001 2.196984e-017 9.937313e-001
      outer loop
         vertex 2.794758e-001 1.216045e-001 1.376382e-001
         vertex 2.594758e-001 6.744476e-002 1.398882e-001
         vertex 2.794758e-001 5.160447e-002 1.376382e-001
      endloop
   endfacet
endsolid