solid rocket_exterior_no_booster - fin2-1
   facet normal 2.290393e-001 -9.734172e-001 1.603545e-015
      outer loop
         vertex 1.973757e-001 2.671236e-002 1.420002e-001
         vertex 2.823757e-001 4.671235e-002 1.420002e-001
         vertex 1.973757e-001 2.671236e-002 1.425002e-001
      endloop
   endfacet
   facet normal 2.290393e-001 -9.734172e-001 1.603545e-015
      outer loop
         vertex 1.973757e-001 2.671236e-002 1.425002e-001
         vertex 2.823757e-001 4.671235e-002 1.420002e-001
         vertex 2.823757e-001 4.671235e-002 1.425002e-001
      endloop
   endfacet
   facet normal -1.000000e+000 1.734723e-018 -6.927451e-015
      outer loop
         vertex 1.973757e-001 1.667124e-001 1.425002e-001
         vertex 1.973757e-001 1.667124e-001 1.420002e-001
         vertex 1.973757e-001 1.435087e-001 1.447502e-001
      endloop
   endfacet
   facet normal -1.000000e+000 1.734723e-018 -6.927451e-015
      outer loop
         vertex 1.973757e-001 1.435087e-001 1.447502e-001
         vertex 1.973757e-001 1.667124e-001 1.420002e-001
         vertex 1.973757e-001 1.435087e-001 1.397502e-001
      endloop
   endfacet
   facet normal -1.000000e+000 1.734723e-018 -6.927451e-015
      outer loop
         vertex 1.973757e-001 1.435087e-001 1.447502e-001
         vertex 1.973757e-001 1.435087e-001 1.397502e-001
         vertex 1.973757e-001 4.725853e-002 1.447502e-001
      endloop
   endfacet
   facet normal -1.000000e+000 1.734723e-018 -6.927451e-015
      outer loop
         vertex 1.973757e-001 4.725853e-002 1.447502e-001
         vertex 1.973757e-001 1.435087e-001 1.397502e-001
         vertex 1.973757e-001 4.725853e-002 1.397502e-001
      endloop
   endfacet
   facet normal -1.000000e+000 1.734723e-018 -6.927451e-015
      outer loop
         vertex 1.973757e-001 4.725853e-002 1.447502e-001
         vertex 1.973757e-001 4.725853e-002 1.397502e-001
         vertex 1.973757e-001 2.671236e-002 1.425002e-001
      endloop
   endfacet
   facet normal -1.000000e+000 1.734723e-018 -6.927451e-015
      outer loop
         vertex 1.973757e-001 2.671236e-002 1.425002e-001
         vertex 1.973757e-001 4.725853e-002 1.397502e-001
         vertex 1.973757e-001 2.671236e-002 1.420002e-001
      endloop
   endfacet
   facet normal 5.070201e-001 8.619342e-001 3.497405e-015
      outer loop
         vertex 2.823757e-001 1.167124e-001 1.420002e-001
         vertex 1.973757e-001 1.667124e-001 1.420002e-001
         vertex 2.823757e-001 1.167124e-001 1.425002e-001
      endloop
   endfacet
   facet normal 5.070201e-001 8.619342e-001 3.497405e-015
      outer loop
         vertex 2.823757e-001 1.167124e-001 1.425002e-001
         vertex 1.973757e-001 1.667124e-001 1.420002e-001
         vertex 1.973757e-001 1.667124e-001 1.425002e-001
      endloop
   endfacet
   facet normal -6.927451e-015 0.000000e+000 1.000000e+000
      outer loop
         vertex 2.623757e-001 1.052734e-001 1.447502e-001
         vertex 1.973757e-001 1.435087e-001 1.447502e-001
         vertex 2.623757e-001 6.255265e-002 1.447502e-001
      endloop
   endfacet
   facet normal -6.927451e-015 0.000000e+000 1.000000e+000
      outer loop
         vertex 2.623757e-001 6.255265e-002 1.447502e-001
         vertex 1.973757e-001 1.435087e-001 1.447502e-001
         vertex 1.973757e-001 4.725853e-002 1.447502e-001
      endloop
   endfacet
   facet normal 1.000000e+000 1.965194e-016 6.927451e-015
      outer loop
         vertex 2.823757e-001 4.671235e-002 1.425002e-001
         vertex 2.823757e-001 4.671235e-002 1.420002e-001
         vertex 2.823757e-001 1.167124e-001 1.425002e-001
      endloop
   endfacet
   facet normal 1.000000e+000 1.965194e-016 6.927451e-015
      outer loop
         vertex 2.823757e-001 1.167124e-001 1.425002e-001
         vertex 2.823757e-001 4.671235e-002 1.420002e-001
         vertex 2.823757e-001 1.167124e-001 1.420002e-001
      endloop
   endfacet
   facet normal 6.927451e-015 0.000000e+000 -1.000000e+000
      outer loop
         vertex 1.973757e-001 4.725853e-002 1.397502e-001
         vertex 1.973757e-001 1.435087e-001 1.397502e-001
         vertex 2.623757e-001 6.255265e-002 1.397502e-001
      endloop
   endfacet
   facet normal 6.927451e-015 0.000000e+000 -1.000000e+000
      outer loop
         vertex 2.623757e-001 6.255265e-002 1.397502e-001
         vertex 1.973757e-001 1.435087e-001 1.397502e-001
         vertex 2.623757e-001 1.052734e-001 1.397502e-001
      endloop
   endfacet
   facet normal 2.560540e-002 -1.088229e-001 -9.937313e-001
      outer loop
         vertex 2.623757e-001 6.255265e-002 1.397502e-001
         vertex 2.823757e-001 4.671235e-002 1.420002e-001
         vertex 1.973757e-001 4.725853e-002 1.397502e-001
      endloop
   endfacet
   facet normal 2.560540e-002 -1.088229e-001 -9.937313e-001
      outer loop
         vertex 1.973757e-001 4.725853e-002 1.397502e-001
         vertex 2.823757e-001 4.671235e-002 1.420002e-001
         vertex 1.973757e-001 2.671236e-002 1.420002e-001
      endloop
   endfacet
   facet normal 5.668220e-002 9.635974e-002 -9.937313e-001
      outer loop
         vertex 2.823757e-001 1.167124e-001 1.420002e-001
         vertex 2.623757e-001 1.052734e-001 1.397502e-001
         vertex 1.973757e-001 1.667124e-001 1.420002e-001
      endloop
   endfacet
   facet normal 5.668220e-002 9.635974e-002 -9.937313e-001
      outer loop
         vertex 1.973757e-001 1.667124e-001 1.420002e-001
         vertex 2.623757e-001 1.052734e-001 1.397502e-001
         vertex 1.973757e-001 1.435087e-001 1.397502e-001
      endloop
   endfacet
   facet normal 1.117948e-001 2.196984e-017 -9.937313e-001
      outer loop
         vertex 2.823757e-001 1.167124e-001 1.420002e-001
         vertex 2.823757e-001 4.671235e-002 1.420002e-001
         vertex 2.623757e-001 1.052734e-001 1.397502e-001
      endloop
   endfacet
   facet normal 1.117948e-001 2.196984e-017 -9.937313e-001
      outer loop
         vertex 2.623757e-001 1.052734e-001 1.397502e-001
         vertex 2.823757e-001 4.671235e-002 1.420002e-001
         vertex 2.623757e-001 6.255265e-002 1.397502e-001
      endloop
   endfacet
   facet normal 2.560540e-002 -1.088229e-001 9.937313e-001
      outer loop
         vertex 2.823757e-001 4.671235e-002 1.425002e-001
         vertex 2.623757e-001 6.255265e-002 1.447502e-001
         vertex 1.973757e-001 2.671236e-002 1.425002e-001
      endloop
   endfacet
   facet normal 2.560540e-002 -1.088229e-001 9.937313e-001
      outer loop
         vertex 1.973757e-001 2.671236e-002 1.425002e-001
         vertex 2.623757e-001 6.255265e-002 1.447502e-001
         vertex 1.973757e-001 4.725853e-002 1.447502e-001
      endloop
   endfacet
   facet normal 5.668220e-002 9.635974e-002 9.937313e-001
      outer loop
         vertex 2.623757e-001 1.052734e-001 1.447502e-001
         vertex 2.823757e-001 1.167124e-001 1.425002e-001
         vertex 1.973757e-001 1.435087e-001 1.447502e-001
      endloop
   endfacet
   facet normal 5.668220e-002 9.635974e-002 9.937313e-001
      outer loop
         vertex 1.973757e-001 1.435087e-001 1.447502e-001
         vertex 2.823757e-001 1.167124e-001 1.425002e-001
         vertex 1.973757e-001 1.667124e-001 1.425002e-001
      endloop
   endfacet
   facet normal 1.117948e-001 2.196984e-017 9.937313e-001
      outer loop
         vertex 2.623757e-001 1.052734e-001 1.447502e-001
         vertex 2.623757e-001 6.255265e-002 1.447502e-001
         vertex 2.823757e-001 1.167124e-001 1.425002e-001
      endloop
   endfacet
   facet normal 1.117948e-001 2.196984e-017 9.937313e-001
      outer loop
         vertex 2.823757e-001 1.167124e-001 1.425002e-001
         vertex 2.623757e-001 6.255265e-002 1.447502e-001
         vertex 2.823757e-001 4.671235e-002 1.425002e-001
      endloop
   endfacet
endsolid