solid rocket_exterior_no_booster - fin3-2
   facet normal 8.038585e-016 -9.734172e-001 -2.290393e-001
      outer loop
         vertex 1.400498e-001 3.451281e-002 8.638769e-002
         vertex 1.400498e-001 5.451281e-002 1.387685e-003
         vertex 1.405498e-001 3.451281e-002 8.638769e-002
      endloop
   endfacet
   facet normal 8.038585e-016 -9.734172e-001 -2.290393e-001
      outer loop
         vertex 1.405498e-001 3.451281e-002 8.638769e-002
         vertex 1.400498e-001 5.451281e-002 1.387685e-003
         vertex 1.405498e-001 5.451281e-002 1.387685e-003
      endloop
   endfacet
   facet normal -3.435970e-015 1.734723e-018 1.000000e+000
      outer loop
         vertex 1.405498e-001 1.745128e-001 8.638769e-002
         vertex 1.400498e-001 1.745128e-001 8.638769e-002
         vertex 1.427998e-001 1.513092e-001 8.638769e-002
      endloop
   endfacet
   facet normal -3.435970e-015 1.734723e-018 1.000000e+000
      outer loop
         vertex 1.427998e-001 1.513092e-001 8.638769e-002
         vertex 1.400498e-001 1.745128e-001 8.638769e-002
         vertex 1.377998e-001 1.513092e-001 8.638769e-002
      endloop
   endfacet
   facet normal -3.435970e-015 1.734723e-018 1.000000e+000
      outer loop
         vertex 1.427998e-001 1.513092e-001 8.638769e-002
         vertex 1.377998e-001 1.513092e-001 8.638769e-002
         vertex 1.427998e-001 5.505898e-002 8.638769e-002
      endloop
   endfacet
   facet normal -3.435970e-015 1.734723e-018 1.000000e+000
      outer loop
         vertex 1.427998e-001 5.505898e-002 8.638769e-002
         vertex 1.377998e-001 1.513092e-001 8.638769e-002
         vertex 1.377998e-001 5.505898e-002 8.638769e-002
      endloop
   endfacet
   facet normal -3.435970e-015 1.734723e-018 1.000000e+000
      outer loop
         vertex 1.427998e-001 5.505898e-002 8.638769e-002
         vertex 1.377998e-001 5.505898e-002 8.638769e-002
         vertex 1.405498e-001 3.451281e-002 8.638769e-002
      endloop
   endfacet
   facet normal -3.435970e-015 1.734723e-018 1.000000e+000
      outer loop
         vertex 1.405498e-001 3.451281e-002 8.638769e-002
         vertex 1.377998e-001 5.505898e-002 8.638769e-002
         vertex 1.400498e-001 3.451281e-002 8.638769e-002
      endloop
   endfacet
   facet normal 1.727154e-015 8.619342e-001 -5.070201e-001
      outer loop
         vertex 1.400498e-001 1.245128e-001 1.387685e-003
         vertex 1.400498e-001 1.745128e-001 8.638769e-002
         vertex 1.405498e-001 1.245128e-001 1.387685e-003
      endloop
   endfacet
   facet normal 1.727154e-015 8.619342e-001 -5.070201e-001
      outer loop
         vertex 1.405498e-001 1.245128e-001 1.387685e-003
         vertex 1.400498e-001 1.745128e-001 8.638769e-002
         vertex 1.405498e-001 1.745128e-001 8.638769e-002
      endloop
   endfacet
   facet normal 1.000000e+000 0.000000e+000 3.435970e-015
      outer loop
         vertex 1.427998e-001 1.130739e-001 2.138769e-002
         vertex 1.427998e-001 1.513092e-001 8.638769e-002
         vertex 1.427998e-001 7.035310e-002 2.138769e-002
      endloop
   endfacet
   facet normal 1.000000e+000 0.000000e+000 3.435970e-015
      outer loop
         vertex 1.427998e-001 7.035310e-002 2.138769e-002
         vertex 1.427998e-001 1.513092e-001 8.638769e-002
         vertex 1.427998e-001 5.505898e-002 8.638769e-002
      endloop
   endfacet
   facet normal 3.435970e-015 1.965194e-016 -1.000000e+000
      outer loop
         vertex 1.405498e-001 5.451281e-002 1.387685e-003
         vertex 1.400498e-001 5.451281e-002 1.387685e-003
         vertex 1.405498e-001 1.245128e-001 1.387685e-003
      endloop
   endfacet
   facet normal 3.435970e-015 1.965194e-016 -1.000000e+000
      outer loop
         vertex 1.405498e-001 1.245128e-001 1.387685e-003
         vertex 1.400498e-001 5.451281e-002 1.387685e-003
         vertex 1.400498e-001 1.245128e-001 1.387685e-003
      endloop
   endfacet
   facet normal -1.000000e+000 0.000000e+000 -3.435970e-015
      outer loop
         vertex 1.377998e-001 5.505898e-002 8.638769e-002
         vertex 1.377998e-001 1.513092e-001 8.638769e-002
         vertex 1.377998e-001 7.035310e-002 2.138769e-002
      endloop
   endfacet
   facet normal -1.000000e+000 0.000000e+000 -3.435970e-015
      outer loop
         vertex 1.377998e-001 7.035310e-002 2.138769e-002
         vertex 1.377998e-001 1.513092e-001 8.638769e-002
         vertex 1.377998e-001 1.130739e-001 2.138769e-002
      endloop
   endfacet
   facet normal -9.937313e-001 -1.088229e-001 -2.560540e-002
      outer loop
         vertex 1.377998e-001 7.035310e-002 2.138769e-002
         vertex 1.400498e-001 5.451281e-002 1.387685e-003
         vertex 1.377998e-001 5.505898e-002 8.638769e-002
      endloop
   endfacet
   facet normal -9.937313e-001 -1.088229e-001 -2.560540e-002
      outer loop
         vertex 1.377998e-001 5.505898e-002 8.638769e-002
         vertex 1.400498e-001 5.451281e-002 1.387685e-003
         vertex 1.400498e-001 3.451281e-002 8.638769e-002
      endloop
   endfacet
   facet normal -9.937313e-001 9.635974e-002 -5.668220e-002
      outer loop
         vertex 1.400498e-001 1.245128e-001 1.387685e-003
         vertex 1.377998e-001 1.130739e-001 2.138769e-002
         vertex 1.400498e-001 1.745128e-001 8.638769e-002
      endloop
   endfacet
   facet normal -9.937313e-001 9.635974e-002 -5.668220e-002
      outer loop
         vertex 1.400498e-001 1.745128e-001 8.638769e-002
         vertex 1.377998e-001 1.130739e-001 2.138769e-002
         vertex 1.377998e-001 1.513092e-001 8.638769e-002
      endloop
   endfacet
   facet normal -9.937313e-001 2.196984e-017 -1.117948e-001
      outer loop
         vertex 1.400498e-001 1.245128e-001 1.387685e-003
         vertex 1.400498e-001 5.451281e-002 1.387685e-003
         vertex 1.377998e-001 1.130739e-001 2.138769e-002
      endloop
   endfacet
   facet normal -9.937313e-001 2.196984e-017 -1.117948e-001
      outer loop
         vertex 1.377998e-001 1.130739e-001 2.138769e-002
         vertex 1.400498e-001 5.451281e-002 1.387685e-003
         vertex 1.377998e-001 7.035310e-002 2.138769e-002
      endloop
   endfacet
   facet normal 9.937313e-001 -1.088229e-001 -2.560540e-002
      outer loop
         vertex 1.405498e-001 5.451281e-002 1.387685e-003
         vertex 1.427998e-001 7.035310e-002 2.138769e-002
         vertex 1.405498e-001 3.451281e-002 8.638769e-002
      endloop
   endfacet
   facet normal 9.937313e-001 -1.088229e-001 -2.560540e-002
      outer loop
         vertex 1.405498e-001 3.451281e-002 8.638769e-002
         vertex 1.427998e-001 7.035310e-002 2.138769e-002
         vertex 1.427998e-001 5.505898e-002 8.638769e-002
      endloop
   endfacet
   facet normal 9.937313e-001 9.635974e-002 -5.668220e-002
      outer loop
         vertex 1.427998e-001 1.130739e-001 2.138769e-002
         vertex 1.405498e-001 1.245128e-001 1.387685e-003
         vertex 1.427998e-001 1.513092e-001 8.638769e-002
      endloop
   endfacet
   facet normal 9.937313e-001 9.635974e-002 -5.668220e-002
      outer loop
         vertex 1.427998e-001 1.513092e-001 8.638769e-002
         vertex 1.405498e-001 1.245128e-001 1.387685e-003
         vertex 1.405498e-001 1.745128e-001 8.638769e-002
      endloop
   endfacet
   facet normal 9.937313e-001 2.196984e-017 -1.117948e-001
      outer loop
         vertex 1.427998e-001 1.130739e-001 2.138769e-002
         vertex 1.427998e-001 7.035310e-002 2.138769e-002
         vertex 1.405498e-001 1.245128e-001 1.387685e-003
      endloop
   endfacet
   facet normal 9.937313e-001 2.196984e-017 -1.117948e-001
      outer loop
         vertex 1.405498e-001 1.245128e-001 1.387685e-003
         vertex 1.427998e-001 7.035310e-002 2.138769e-002
         vertex 1.405498e-001 5.451281e-002 1.387685e-003
      endloop
   endfacet
endsolid