solid rocket_exterior_no_booster - fin3-2
   facet normal 8.038585e-016 -9.734172e-001 -2.290393e-001
      outer loop
         vertex 1.418794e-001 2.771071e-002 8.640520e-002
         vertex 1.418794e-001 4.771071e-002 1.405202e-003
         vertex 1.423794e-001 2.771071e-002 8.640520e-002
      endloop
   endfacet
   facet normal 8.038585e-016 -9.734172e-001 -2.290393e-001
      outer loop
         vertex 1.423794e-001 2.771071e-002 8.640520e-002
         vertex 1.418794e-001 4.771071e-002 1.405202e-003
         vertex 1.423794e-001 4.771071e-002 1.405202e-003
      endloop
   endfacet
   facet normal -3.435970e-015 1.734723e-018 1.000000e+000
      outer loop
         vertex 1.423794e-001 1.677107e-001 8.640520e-002
         vertex 1.418794e-001 1.677107e-001 8.640520e-002
         vertex 1.446294e-001 1.445071e-001 8.640520e-002
      endloop
   endfacet
   facet normal -3.435970e-015 1.734723e-018 1.000000e+000
      outer loop
         vertex 1.446294e-001 1.445071e-001 8.640520e-002
         vertex 1.418794e-001 1.677107e-001 8.640520e-002
         vertex 1.396294e-001 1.445071e-001 8.640520e-002
      endloop
   endfacet
   facet normal -3.435970e-015 1.734723e-018 1.000000e+000
      outer loop
         vertex 1.446294e-001 1.445071e-001 8.640520e-002
         vertex 1.396294e-001 1.445071e-001 8.640520e-002
         vertex 1.446294e-001 4.825689e-002 8.640520e-002
      endloop
   endfacet
   facet normal -3.435970e-015 1.734723e-018 1.000000e+000
      outer loop
         vertex 1.446294e-001 4.825689e-002 8.640520e-002
         vertex 1.396294e-001 1.445071e-001 8.640520e-002
         vertex 1.396294e-001 4.825689e-002 8.640520e-002
      endloop
   endfacet
   facet normal -3.435970e-015 1.734723e-018 1.000000e+000
      outer loop
         vertex 1.446294e-001 4.825689e-002 8.640520e-002
         vertex 1.396294e-001 4.825689e-002 8.640520e-002
         vertex 1.423794e-001 2.771071e-002 8.640520e-002
      endloop
   endfacet
   facet normal -3.435970e-015 1.734723e-018 1.000000e+000
      outer loop
         vertex 1.423794e-001 2.771071e-002 8.640520e-002
         vertex 1.396294e-001 4.825689e-002 8.640520e-002
         vertex 1.418794e-001 2.771071e-002 8.640520e-002
      endloop
   endfacet
   facet normal 1.727154e-015 8.619342e-001 -5.070201e-001
      outer loop
         vertex 1.418794e-001 1.177107e-001 1.405202e-003
         vertex 1.418794e-001 1.677107e-001 8.640520e-002
         vertex 1.423794e-001 1.177107e-001 1.405202e-003
      endloop
   endfacet
   facet normal 1.727154e-015 8.619342e-001 -5.070201e-001
      outer loop
         vertex 1.423794e-001 1.177107e-001 1.405202e-003
         vertex 1.418794e-001 1.677107e-001 8.640520e-002
         vertex 1.423794e-001 1.677107e-001 8.640520e-002
      endloop
   endfacet
   facet normal 1.000000e+000 0.000000e+000 3.435970e-015
      outer loop
         vertex 1.446294e-001 1.062718e-001 2.140521e-002
         vertex 1.446294e-001 1.445071e-001 8.640520e-002
         vertex 1.446294e-001 6.355100e-002 2.140521e-002
      endloop
   endfacet
   facet normal 1.000000e+000 0.000000e+000 3.435970e-015
      outer loop
         vertex 1.446294e-001 6.355100e-002 2.140521e-002
         vertex 1.446294e-001 1.445071e-001 8.640520e-002
         vertex 1.446294e-001 4.825689e-002 8.640520e-002
      endloop
   endfacet
   facet normal 3.435970e-015 1.965194e-016 -1.000000e+000
      outer loop
         vertex 1.423794e-001 4.771071e-002 1.405202e-003
         vertex 1.418794e-001 4.771071e-002 1.405202e-003
         vertex 1.423794e-001 1.177107e-001 1.405202e-003
      endloop
   endfacet
   facet normal 3.435970e-015 1.965194e-016 -1.000000e+000
      outer loop
         vertex 1.423794e-001 1.177107e-001 1.405202e-003
         vertex 1.418794e-001 4.771071e-002 1.405202e-003
         vertex 1.418794e-001 1.177107e-001 1.405202e-003
      endloop
   endfacet
   facet normal -1.000000e+000 0.000000e+000 -3.435970e-015
      outer loop
         vertex 1.396294e-001 4.825689e-002 8.640520e-002
         vertex 1.396294e-001 1.445071e-001 8.640520e-002
         vertex 1.396294e-001 6.355100e-002 2.140521e-002
      endloop
   endfacet
   facet normal -1.000000e+000 0.000000e+000 -3.435970e-015
      outer loop
         vertex 1.396294e-001 6.355100e-002 2.140521e-002
         vertex 1.396294e-001 1.445071e-001 8.640520e-002
         vertex 1.396294e-001 1.062718e-001 2.140521e-002
      endloop
   endfacet
   facet normal -9.937313e-001 -1.088229e-001 -2.560540e-002
      outer loop
         vertex 1.396294e-001 6.355100e-002 2.140521e-002
         vertex 1.418794e-001 4.771071e-002 1.405202e-003
         vertex 1.396294e-001 4.825689e-002 8.640520e-002
      endloop
   endfacet
   facet normal -9.937313e-001 -1.088229e-001 -2.560540e-002
      outer loop
         vertex 1.396294e-001 4.825689e-002 8.640520e-002
         vertex 1.418794e-001 4.771071e-002 1.405202e-003
         vertex 1.418794e-001 2.771071e-002 8.640520e-002
      endloop
   endfacet
   facet normal -9.937313e-001 9.635974e-002 -5.668220e-002
      outer loop
         vertex 1.418794e-001 1.177107e-001 1.405202e-003
         vertex 1.396294e-001 1.062718e-001 2.140521e-002
         vertex 1.418794e-001 1.677107e-001 8.640520e-002
      endloop
   endfacet
   facet normal -9.937313e-001 9.635974e-002 -5.668220e-002
      outer loop
         vertex 1.418794e-001 1.677107e-001 8.640520e-002
         vertex 1.396294e-001 1.062718e-001 2.140521e-002
         vertex 1.396294e-001 1.445071e-001 8.640520e-002
      endloop
   endfacet
   facet normal -9.937313e-001 2.196984e-017 -1.117948e-001
      outer loop
         vertex 1.418794e-001 1.177107e-001 1.405202e-003
         vertex 1.418794e-001 4.771071e-002 1.405202e-003
         vertex 1.396294e-001 1.062718e-001 2.140521e-002
      endloop
   endfacet
   facet normal -9.937313e-001 2.196984e-017 -1.117948e-001
      outer loop
         vertex 1.396294e-001 1.062718e-001 2.140521e-002
         vertex 1.418794e-001 4.771071e-002 1.405202e-003
         vertex 1.396294e-001 6.355100e-002 2.140521e-002
      endloop
   endfacet
   facet normal 9.937313e-001 -1.088229e-001 -2.560540e-002
      outer loop
         vertex 1.423794e-001 4.771071e-002 1.405202e-003
         vertex 1.446294e-001 6.355100e-002 2.140521e-002
         vertex 1.423794e-001 2.771071e-002 8.640520e-002
      endloop
   endfacet
   facet normal 9.937313e-001 -1.088229e-001 -2.560540e-002
      outer loop
         vertex 1.423794e-001 2.771071e-002 8.640520e-002
         vertex 1.446294e-001 6.355100e-002 2.140521e-002
         vertex 1.446294e-001 4.825689e-002 8.640520e-002
      endloop
   endfacet
   facet normal 9.937313e-001 9.635974e-002 -5.668220e-002
      outer loop
         vertex 1.446294e-001 1.062718e-001 2.140521e-002
         vertex 1.423794e-001 1.177107e-001 1.405202e-003
         vertex 1.446294e-001 1.445071e-001 8.640520e-002
      endloop
   endfacet
   facet normal 9.937313e-001 9.635974e-002 -5.668220e-002
      outer loop
         vertex 1.446294e-001 1.445071e-001 8.640520e-002
         vertex 1.423794e-001 1.177107e-001 1.405202e-003
         vertex 1.423794e-001 1.677107e-001 8.640520e-002
      endloop
   endfacet
   facet normal 9.937313e-001 2.196984e-017 -1.117948e-001
      outer loop
         vertex 1.446294e-001 1.062718e-001 2.140521e-002
         vertex 1.446294e-001 6.355100e-002 2.140521e-002
         vertex 1.423794e-001 1.177107e-001 1.405202e-003
      endloop
   endfacet
   facet normal 9.937313e-001 2.196984e-017 -1.117948e-001
      outer loop
         vertex 1.423794e-001 1.177107e-001 1.405202e-003
         vertex 1.446294e-001 6.355100e-002 2.140521e-002
         vertex 1.423794e-001 4.771071e-002 1.405202e-003
      endloop
   endfacet
endsolid