solid rocket_exterior_no_booster - fin4-1-1
   facet normal -2.403232e-015 -9.734172e-001 2.290393e-001
      outer loop
         vertex 1.427502e-001 2.768254e-002 1.974099e-001
         vertex 1.427502e-001 4.768254e-002 2.824099e-001
         vertex 1.422503e-001 2.768254e-002 1.974099e-001
      endloop
   endfacet
   facet normal -2.403232e-015 -9.734172e-001 2.290393e-001
      outer loop
         vertex 1.422503e-001 2.768254e-002 1.974099e-001
         vertex 1.427502e-001 4.768254e-002 2.824099e-001
         vertex 1.422503e-001 4.768254e-002 2.824099e-001
      endloop
   endfacet
   facet normal 1.041893e-014 1.734723e-018 -1.000000e+000
      outer loop
         vertex 1.422503e-001 1.676825e-001 1.974099e-001
         vertex 1.427502e-001 1.676825e-001 1.974099e-001
         vertex 1.400003e-001 1.444789e-001 1.974099e-001
      endloop
   endfacet
   facet normal 1.041893e-014 1.734723e-018 -1.000000e+000
      outer loop
         vertex 1.400003e-001 1.444789e-001 1.974099e-001
         vertex 1.427502e-001 1.676825e-001 1.974099e-001
         vertex 1.450002e-001 1.444789e-001 1.974099e-001
      endloop
   endfacet
   facet normal 1.041893e-014 1.734723e-018 -1.000000e+000
      outer loop
         vertex 1.400003e-001 1.444789e-001 1.974099e-001
         vertex 1.450002e-001 1.444789e-001 1.974099e-001
         vertex 1.400003e-001 4.822872e-002 1.974099e-001
      endloop
   endfacet
   facet normal 1.041893e-014 1.734723e-018 -1.000000e+000
      outer loop
         vertex 1.400003e-001 4.822872e-002 1.974099e-001
         vertex 1.450002e-001 1.444789e-001 1.974099e-001
         vertex 1.450002e-001 4.822872e-002 1.974099e-001
      endloop
   endfacet
   facet normal 1.041893e-014 1.734723e-018 -1.000000e+000
      outer loop
         vertex 1.400003e-001 4.822872e-002 1.974099e-001
         vertex 1.450002e-001 4.822872e-002 1.974099e-001
         vertex 1.422503e-001 2.768254e-002 1.974099e-001
      endloop
   endfacet
   facet normal 1.041893e-014 1.734723e-018 -1.000000e+000
      outer loop
         vertex 1.422503e-001 2.768254e-002 1.974099e-001
         vertex 1.450002e-001 4.822872e-002 1.974099e-001
         vertex 1.427502e-001 2.768254e-002 1.974099e-001
      endloop
   endfacet
   facet normal -5.267656e-015 8.619342e-001 5.070201e-001
      outer loop
         vertex 1.427502e-001 1.176825e-001 2.824099e-001
         vertex 1.427502e-001 1.676825e-001 1.974099e-001
         vertex 1.422503e-001 1.176825e-001 2.824099e-001
      endloop
   endfacet
   facet normal -5.267656e-015 8.619342e-001 5.070201e-001
      outer loop
         vertex 1.422503e-001 1.176825e-001 2.824099e-001
         vertex 1.427502e-001 1.676825e-001 1.974099e-001
         vertex 1.422503e-001 1.676825e-001 1.974099e-001
      endloop
   endfacet
   facet normal -1.000000e+000 0.000000e+000 -1.041893e-014
      outer loop
         vertex 1.400003e-001 1.062436e-001 2.624099e-001
         vertex 1.400003e-001 1.444789e-001 1.974099e-001
         vertex 1.400003e-001 6.352284e-002 2.624099e-001
      endloop
   endfacet
   facet normal -1.000000e+000 0.000000e+000 -1.041893e-014
      outer loop
         vertex 1.400003e-001 6.352284e-002 2.624099e-001
         vertex 1.400003e-001 1.444789e-001 1.974099e-001
         vertex 1.400003e-001 4.822872e-002 1.974099e-001
      endloop
   endfacet
   facet normal -1.041893e-014 1.965194e-016 1.000000e+000
      outer loop
         vertex 1.422503e-001 4.768254e-002 2.824099e-001
         vertex 1.427502e-001 4.768254e-002 2.824099e-001
         vertex 1.422503e-001 1.176825e-001 2.824099e-001
      endloop
   endfacet
   facet normal -1.041893e-014 1.965194e-016 1.000000e+000
      outer loop
         vertex 1.422503e-001 1.176825e-001 2.824099e-001
         vertex 1.427502e-001 4.768254e-002 2.824099e-001
         vertex 1.427502e-001 1.176825e-001 2.824099e-001
      endloop
   endfacet
   facet normal 1.000000e+000 0.000000e+000 1.041893e-014
      outer loop
         vertex 1.450002e-001 4.822872e-002 1.974099e-001
         vertex 1.450002e-001 1.444789e-001 1.974099e-001
         vertex 1.450002e-001 6.352284e-002 2.624099e-001
      endloop
   endfacet
   facet normal 1.000000e+000 0.000000e+000 1.041893e-014
      outer loop
         vertex 1.450002e-001 6.352284e-002 2.624099e-001
         vertex 1.450002e-001 1.444789e-001 1.974099e-001
         vertex 1.450002e-001 1.062436e-001 2.624099e-001
      endloop
   endfacet
   facet normal 9.937313e-001 -1.088229e-001 2.560540e-002
      outer loop
         vertex 1.450002e-001 6.352284e-002 2.624099e-001
         vertex 1.427502e-001 4.768254e-002 2.824099e-001
         vertex 1.450002e-001 4.822872e-002 1.974099e-001
      endloop
   endfacet
   facet normal 9.937313e-001 -1.088229e-001 2.560540e-002
      outer loop
         vertex 1.450002e-001 4.822872e-002 1.974099e-001
         vertex 1.427502e-001 4.768254e-002 2.824099e-001
         vertex 1.427502e-001 2.768254e-002 1.974099e-001
      endloop
   endfacet
   facet normal 9.937313e-001 9.635974e-002 5.668220e-002
      outer loop
         vertex 1.427502e-001 1.176825e-001 2.824099e-001
         vertex 1.450002e-001 1.062436e-001 2.624099e-001
         vertex 1.427502e-001 1.676825e-001 1.974099e-001
      endloop
   endfacet
   facet normal 9.937313e-001 9.635974e-002 5.668220e-002
      outer loop
         vertex 1.427502e-001 1.676825e-001 1.974099e-001
         vertex 1.450002e-001 1.062436e-001 2.624099e-001
         vertex 1.450002e-001 1.444789e-001 1.974099e-001
      endloop
   endfacet
   facet normal 9.937313e-001 2.196984e-017 1.117948e-001
      outer loop
         vertex 1.427502e-001 1.176825e-001 2.824099e-001
         vertex 1.427502e-001 4.768254e-002 2.824099e-001
         vertex 1.450002e-001 1.062436e-001 2.624099e-001
      endloop
   endfacet
   facet normal 9.937313e-001 2.196984e-017 1.117948e-001
      outer loop
         vertex 1.450002e-001 1.062436e-001 2.624099e-001
         vertex 1.427502e-001 4.768254e-002 2.824099e-001
         vertex 1.450002e-001 6.352284e-002 2.624099e-001
      endloop
   endfacet
   facet normal -9.937313e-001 -1.088229e-001 2.560540e-002
      outer loop
         vertex 1.422503e-001 4.768254e-002 2.824099e-001
         vertex 1.400003e-001 6.352284e-002 2.624099e-001
         vertex 1.422503e-001 2.768254e-002 1.974099e-001
      endloop
   endfacet
   facet normal -9.937313e-001 -1.088229e-001 2.560540e-002
      outer loop
         vertex 1.422503e-001 2.768254e-002 1.974099e-001
         vertex 1.400003e-001 6.352284e-002 2.624099e-001
         vertex 1.400003e-001 4.822872e-002 1.974099e-001
      endloop
   endfacet
   facet normal -9.937313e-001 9.635974e-002 5.668220e-002
      outer loop
         vertex 1.400003e-001 1.062436e-001 2.624099e-001
         vertex 1.422503e-001 1.176825e-001 2.824099e-001
         vertex 1.400003e-001 1.444789e-001 1.974099e-001
      endloop
   endfacet
   facet normal -9.937313e-001 9.635974e-002 5.668220e-002
      outer loop
         vertex 1.400003e-001 1.444789e-001 1.974099e-001
         vertex 1.422503e-001 1.176825e-001 2.824099e-001
         vertex 1.422503e-001 1.676825e-001 1.974099e-001
      endloop
   endfacet
   facet normal -9.937313e-001 2.196984e-017 1.117948e-001
      outer loop
         vertex 1.400003e-001 1.062436e-001 2.624099e-001
         vertex 1.400003e-001 6.352284e-002 2.624099e-001
         vertex 1.422503e-001 1.176825e-001 2.824099e-001
      endloop
   endfacet
   facet normal -9.937313e-001 2.196984e-017 1.117948e-001
      outer loop
         vertex 1.422503e-001 1.176825e-001 2.824099e-001
         vertex 1.400003e-001 6.352284e-002 2.624099e-001
         vertex 1.422503e-001 4.768254e-002 2.824099e-001
      endloop
   endfacet
endsolid