solid rocket_exterior_no_booster - fin4-1
   facet normal -2.403232e-015 -9.734172e-001 2.290393e-001
      outer loop
         vertex 1.416203e-001 3.353479e-002 1.944565e-001
         vertex 1.416203e-001 5.353479e-002 2.794565e-001
         vertex 1.411203e-001 3.353479e-002 1.944565e-001
      endloop
   endfacet
   facet normal -2.403232e-015 -9.734172e-001 2.290393e-001
      outer loop
         vertex 1.411203e-001 3.353479e-002 1.944565e-001
         vertex 1.416203e-001 5.353479e-002 2.794565e-001
         vertex 1.411203e-001 5.353479e-002 2.794565e-001
      endloop
   endfacet
   facet normal 1.041893e-014 1.734723e-018 -1.000000e+000
      outer loop
         vertex 1.411203e-001 1.735348e-001 1.944565e-001
         vertex 1.416203e-001 1.735348e-001 1.944565e-001
         vertex 1.388703e-001 1.503312e-001 1.944565e-001
      endloop
   endfacet
   facet normal 1.041893e-014 1.734723e-018 -1.000000e+000
      outer loop
         vertex 1.388703e-001 1.503312e-001 1.944565e-001
         vertex 1.416203e-001 1.735348e-001 1.944565e-001
         vertex 1.438703e-001 1.503312e-001 1.944565e-001
      endloop
   endfacet
   facet normal 1.041893e-014 1.734723e-018 -1.000000e+000
      outer loop
         vertex 1.388703e-001 1.503312e-001 1.944565e-001
         vertex 1.438703e-001 1.503312e-001 1.944565e-001
         vertex 1.388703e-001 5.408097e-002 1.944565e-001
      endloop
   endfacet
   facet normal 1.041893e-014 1.734723e-018 -1.000000e+000
      outer loop
         vertex 1.388703e-001 5.408097e-002 1.944565e-001
         vertex 1.438703e-001 1.503312e-001 1.944565e-001
         vertex 1.438703e-001 5.408097e-002 1.944565e-001
      endloop
   endfacet
   facet normal 1.041893e-014 1.734723e-018 -1.000000e+000
      outer loop
         vertex 1.388703e-001 5.408097e-002 1.944565e-001
         vertex 1.438703e-001 5.408097e-002 1.944565e-001
         vertex 1.411203e-001 3.353479e-002 1.944565e-001
      endloop
   endfacet
   facet normal 1.041893e-014 1.734723e-018 -1.000000e+000
      outer loop
         vertex 1.411203e-001 3.353479e-002 1.944565e-001
         vertex 1.438703e-001 5.408097e-002 1.944565e-001
         vertex 1.416203e-001 3.353479e-002 1.944565e-001
      endloop
   endfacet
   facet normal -5.267656e-015 8.619342e-001 5.070201e-001
      outer loop
         vertex 1.416203e-001 1.235348e-001 2.794565e-001
         vertex 1.416203e-001 1.735348e-001 1.944565e-001
         vertex 1.411203e-001 1.235348e-001 2.794565e-001
      endloop
   endfacet
   facet normal -5.267656e-015 8.619342e-001 5.070201e-001
      outer loop
         vertex 1.411203e-001 1.235348e-001 2.794565e-001
         vertex 1.416203e-001 1.735348e-001 1.944565e-001
         vertex 1.411203e-001 1.735348e-001 1.944565e-001
      endloop
   endfacet
   facet normal -1.000000e+000 0.000000e+000 -1.041893e-014
      outer loop
         vertex 1.388703e-001 1.120959e-001 2.594565e-001
         vertex 1.388703e-001 1.503312e-001 1.944565e-001
         vertex 1.388703e-001 6.937508e-002 2.594565e-001
      endloop
   endfacet
   facet normal -1.000000e+000 0.000000e+000 -1.041893e-014
      outer loop
         vertex 1.388703e-001 6.937508e-002 2.594565e-001
         vertex 1.388703e-001 1.503312e-001 1.944565e-001
         vertex 1.388703e-001 5.408097e-002 1.944565e-001
      endloop
   endfacet
   facet normal -1.041893e-014 1.965194e-016 1.000000e+000
      outer loop
         vertex 1.411203e-001 5.353479e-002 2.794565e-001
         vertex 1.416203e-001 5.353479e-002 2.794565e-001
         vertex 1.411203e-001 1.235348e-001 2.794565e-001
      endloop
   endfacet
   facet normal -1.041893e-014 1.965194e-016 1.000000e+000
      outer loop
         vertex 1.411203e-001 1.235348e-001 2.794565e-001
         vertex 1.416203e-001 5.353479e-002 2.794565e-001
         vertex 1.416203e-001 1.235348e-001 2.794565e-001
      endloop
   endfacet
   facet normal 1.000000e+000 0.000000e+000 1.041893e-014
      outer loop
         vertex 1.438703e-001 5.408097e-002 1.944565e-001
         vertex 1.438703e-001 1.503312e-001 1.944565e-001
         vertex 1.438703e-001 6.937508e-002 2.594565e-001
      endloop
   endfacet
   facet normal 1.000000e+000 0.000000e+000 1.041893e-014
      outer loop
         vertex 1.438703e-001 6.937508e-002 2.594565e-001
         vertex 1.438703e-001 1.503312e-001 1.944565e-001
         vertex 1.438703e-001 1.120959e-001 2.594565e-001
      endloop
   endfacet
   facet normal 9.937313e-001 -1.088229e-001 2.560540e-002
      outer loop
         vertex 1.438703e-001 6.937508e-002 2.594565e-001
         vertex 1.416203e-001 5.353479e-002 2.794565e-001
         vertex 1.438703e-001 5.408097e-002 1.944565e-001
      endloop
   endfacet
   facet normal 9.937313e-001 -1.088229e-001 2.560540e-002
      outer loop
         vertex 1.438703e-001 5.408097e-002 1.944565e-001
         vertex 1.416203e-001 5.353479e-002 2.794565e-001
         vertex 1.416203e-001 3.353479e-002 1.944565e-001
      endloop
   endfacet
   facet normal 9.937313e-001 9.635974e-002 5.668220e-002
      outer loop
         vertex 1.416203e-001 1.235348e-001 2.794565e-001
         vertex 1.438703e-001 1.120959e-001 2.594565e-001
         vertex 1.416203e-001 1.735348e-001 1.944565e-001
      endloop
   endfacet
   facet normal 9.937313e-001 9.635974e-002 5.668220e-002
      outer loop
         vertex 1.416203e-001 1.735348e-001 1.944565e-001
         vertex 1.438703e-001 1.120959e-001 2.594565e-001
         vertex 1.438703e-001 1.503312e-001 1.944565e-001
      endloop
   endfacet
   facet normal 9.937313e-001 2.196984e-017 1.117948e-001
      outer loop
         vertex 1.416203e-001 1.235348e-001 2.794565e-001
         vertex 1.416203e-001 5.353479e-002 2.794565e-001
         vertex 1.438703e-001 1.120959e-001 2.594565e-001
      endloop
   endfacet
   facet normal 9.937313e-001 2.196984e-017 1.117948e-001
      outer loop
         vertex 1.438703e-001 1.120959e-001 2.594565e-001
         vertex 1.416203e-001 5.353479e-002 2.794565e-001
         vertex 1.438703e-001 6.937508e-002 2.594565e-001
      endloop
   endfacet
   facet normal -9.937313e-001 -1.088229e-001 2.560540e-002
      outer loop
         vertex 1.411203e-001 5.353479e-002 2.794565e-001
         vertex 1.388703e-001 6.937508e-002 2.594565e-001
         vertex 1.411203e-001 3.353479e-002 1.944565e-001
      endloop
   endfacet
   facet normal -9.937313e-001 -1.088229e-001 2.560540e-002
      outer loop
         vertex 1.411203e-001 3.353479e-002 1.944565e-001
         vertex 1.388703e-001 6.937508e-002 2.594565e-001
         vertex 1.388703e-001 5.408097e-002 1.944565e-001
      endloop
   endfacet
   facet normal -9.937313e-001 9.635974e-002 5.668220e-002
      outer loop
         vertex 1.388703e-001 1.120959e-001 2.594565e-001
         vertex 1.411203e-001 1.235348e-001 2.794565e-001
         vertex 1.388703e-001 1.503312e-001 1.944565e-001
      endloop
   endfacet
   facet normal -9.937313e-001 9.635974e-002 5.668220e-002
      outer loop
         vertex 1.388703e-001 1.503312e-001 1.944565e-001
         vertex 1.411203e-001 1.235348e-001 2.794565e-001
         vertex 1.411203e-001 1.735348e-001 1.944565e-001
      endloop
   endfacet
   facet normal -9.937313e-001 2.196984e-017 1.117948e-001
      outer loop
         vertex 1.388703e-001 1.120959e-001 2.594565e-001
         vertex 1.388703e-001 6.937508e-002 2.594565e-001
         vertex 1.411203e-001 1.235348e-001 2.794565e-001
      endloop
   endfacet
   facet normal -9.937313e-001 2.196984e-017 1.117948e-001
      outer loop
         vertex 1.411203e-001 1.235348e-001 2.794565e-001
         vertex 1.388703e-001 6.937508e-002 2.594565e-001
         vertex 1.411203e-001 5.353479e-002 2.794565e-001
      endloop
   endfacet
endsolid