solid OpenSCAD_Model
  facet normal 0 0 1
    outer loop
      vertex -21.289 -45.2414 -250
      vertex -20.6699 -45.8013 -250
      vertex -20.4955 -45.4992 -250
    endloop
  endfacet
  facet normal -0 0 1
    outer loop
      vertex -29.3301 -40.8013 -250
      vertex -21.289 -45.2414 -250
      vertex -29.05 -40.3161 -250
    endloop
  endfacet
  facet normal 0 0 1
    outer loop
      vertex -21.289 -45.2414 -250
      vertex -29.3301 -40.8013 -250
      vertex -20.6699 -45.8013 -250
    endloop
  endfacet
  facet normal 0 0 1
    outer loop
      vertex -20.6699 45.8013 -250
      vertex -21.289 45.2414 -250
      vertex -20.4955 45.4992 -250
    endloop
  endfacet
  facet normal 0 0 1
    outer loop
      vertex -29.3301 40.8013 -250
      vertex -21.289 45.2414 -250
      vertex -20.6699 45.8013 -250
    endloop
  endfacet
  facet normal 0 0 1
    outer loop
      vertex -21.289 45.2414 -250
      vertex -29.3301 40.8013 -250
      vertex -29.05 40.3161 -250
    endloop
  endfacet
  facet normal 0 0 1
    outer loop
      vertex 50 0 -250
      vertex 49.3684 -5 -250
      vertex 50 -5 -250
    endloop
  endfacet
  facet normal 0 0 1
    outer loop
      vertex 50 5 -250
      vertex 49.3684 5 -250
      vertex 50 0 -250
    endloop
  endfacet
  facet normal 0 -1 0
    outer loop
      vertex 49.3684 -5 -250
      vertex 100 -5 -450
      vertex 50 -5 -250
    endloop
  endfacet
  facet normal 0 -1 0
    outer loop
      vertex 49.3684 -5 -650
      vertex 100 -5 -450
      vertex 49.3684 -5 -250
    endloop
  endfacet
  facet normal 0 -1 -0
    outer loop
      vertex 100 -5 -450
      vertex 49.3684 -5 -650
      vertex 100 -5 -650
    endloop
  endfacet
  facet normal 0 1 0
    outer loop
      vertex 100 5 -450
      vertex 49.3684 5 -250
      vertex 50 5 -250
    endloop
  endfacet
  facet normal 0 1 0
    outer loop
      vertex 49.3684 5 -650
      vertex 100 5 -450
      vertex 100 5 -650
    endloop
  endfacet
  facet normal 0 1 0
    outer loop
      vertex 100 5 -450
      vertex 49.3684 5 -650
      vertex 49.3684 5 -250
    endloop
  endfacet
  facet normal 0 0 -1
    outer loop
      vertex -40.4509 -29.3893 -650
      vertex -29.05 -40.3161 -650
      vertex -31.8712 -38.5257 -650
    endloop
  endfacet
  facet normal 0 0 -1
    outer loop
      vertex -46.4888 -18.4062 -650
      vertex -29.05 -40.3161 -650
      vertex -40.4509 -29.3893 -650
    endloop
  endfacet
  facet normal 0 0 -1
    outer loop
      vertex -29.05 -40.3161 -650
      vertex -46.4888 -18.4062 -650
      vertex -29.05 40.3161 -650
    endloop
  endfacet
  facet normal 0 0 -1
    outer loop
      vertex -29.05 40.3161 -650
      vertex -40.4509 29.3893 -650
      vertex -31.8712 38.5257 -650
    endloop
  endfacet
  facet normal 0 0 -1
    outer loop
      vertex -46.4888 18.4062 -650
      vertex -29.05 40.3161 -650
      vertex -46.4888 -18.4062 -650
    endloop
  endfacet
  facet normal 0 0 -1
    outer loop
      vertex -29.05 40.3161 -650
      vertex -46.4888 18.4062 -650
      vertex -40.4509 29.3893 -650
    endloop
  endfacet
  facet normal 0 0 -1
    outer loop
      vertex -49.6057 -6.26666 -650
      vertex -46.4888 18.4062 -650
      vertex -46.4888 -18.4062 -650
    endloop
  endfacet
  facet normal 0 0 -1
    outer loop
      vertex -46.4888 18.4062 -650
      vertex -49.6057 -6.26666 -650
      vertex -49.6057 6.26666 -650
    endloop
  endfacet
  facet normal 0 0 -1
    outer loop
      vertex 49.3684 -5 -650
      vertex 100 5 -650
      vertex 100 -5 -650
    endloop
  endfacet
  facet normal 0 0 -1
    outer loop
      vertex 49.3684 -5 -650
      vertex 49.3684 5 -650
      vertex 100 5 -650
    endloop
  endfacet
  facet normal 0 0 -1
    outer loop
      vertex 43.8153 -24.0877 -650
      vertex 49.3684 -5 -650
      vertex 48.4292 -12.4345 -650
    endloop
  endfacet
  facet normal 0 0 -1
    outer loop
      vertex 36.4484 -34.2274 -650
      vertex 49.3684 -5 -650
      vertex 43.8153 -24.0877 -650
    endloop
  endfacet
  facet normal 0 0 -1
    outer loop
      vertex 26.7913 -42.2164 -650
      vertex 49.3684 -5 -650
      vertex 36.4484 -34.2274 -650
    endloop
  endfacet
  facet normal 0 0 -1
    outer loop
      vertex 49.3684 5 -650
      vertex 43.8153 24.0877 -650
      vertex 48.4292 12.4345 -650
    endloop
  endfacet
  facet normal 0 0 -1
    outer loop
      vertex 15.4508 -47.5528 -650
      vertex 49.3684 -5 -650
      vertex 26.7913 -42.2164 -650
    endloop
  endfacet
  facet normal 0 0 -1
    outer loop
      vertex 49.3684 5 -650
      vertex 36.4484 34.2274 -650
      vertex 43.8153 24.0877 -650
    endloop
  endfacet
  facet normal -0 0 -1
    outer loop
      vertex 49.3684 -5 -650
      vertex 15.4508 -47.5528 -650
      vertex 49.3684 5 -650
    endloop
  endfacet
  facet normal 0 0 -1
    outer loop
      vertex 49.3684 5 -650
      vertex 26.7913 42.2164 -650
      vertex 36.4484 34.2274 -650
    endloop
  endfacet
  facet normal 0 0 -1
    outer loop
      vertex 3.13953 -49.9013 -650
      vertex 49.3684 5 -650
      vertex 15.4508 -47.5528 -650
    endloop
  endfacet
  facet normal 0 0 -1
    outer loop
      vertex 49.3684 5 -650
      vertex 15.4508 47.5528 -650
      vertex 26.7913 42.2164 -650
    endloop
  endfacet
  facet normal -0 0 -1
    outer loop
      vertex 49.3684 5 -650
      vertex 3.13953 -49.9013 -650
      vertex 15.4508 47.5528 -650
    endloop
  endfacet
  facet normal 0 0 -1
    outer loop
      vertex 3.13953 -49.9013 -650
      vertex 3.13953 49.9013 -650
      vertex 15.4508 47.5528 -650
    endloop
  endfacet
  facet normal 0 0 -1
    outer loop
      vertex -29.05 -40.3161 -650
      vertex 3.13953 -49.9013 -650
      vertex -9.36907 -49.1144 -650
    endloop
  endfacet
  facet normal 0 0 -1
    outer loop
      vertex 3.13953 -49.9013 -650
      vertex -29.05 -40.3161 -650
      vertex 3.13953 49.9013 -650
    endloop
  endfacet
  facet normal 0 0 -1
    outer loop
      vertex -29.05 -40.3161 -650
      vertex -9.36907 -49.1144 -650
      vertex -20.4955 -45.4992 -650
    endloop
  endfacet
  facet normal 0 0 -1
    outer loop
      vertex -29.05 40.3161 -650
      vertex 3.13953 49.9013 -650
      vertex -29.05 -40.3161 -650
    endloop
  endfacet
  facet normal 0 0 -1
    outer loop
      vertex 3.13953 49.9013 -650
      vertex -29.05 40.3161 -650
      vertex -9.36907 49.1144 -650
    endloop
  endfacet
  facet normal 0 0 -1
    outer loop
      vertex -54.3301 -84.1025 -650
      vertex -20.4955 -45.4992 -650
      vertex -45.6699 -89.1025 -650
    endloop
  endfacet
  facet normal -0 0 -1
    outer loop
      vertex -20.4955 -45.4992 -650
      vertex -54.3301 -84.1025 -650
      vertex -29.05 -40.3161 -650
    endloop
  endfacet
  facet normal 0 0 -1
    outer loop
      vertex -9.36907 49.1144 -650
      vertex -29.05 40.3161 -650
      vertex -20.4955 45.4992 -650
    endloop
  endfacet
  facet normal 0 0 -1
    outer loop
      vertex -54.3301 84.1025 -650
      vertex -20.4955 45.4992 -650
      vertex -29.05 40.3161 -650
    endloop
  endfacet
  facet normal 0 0 -1
    outer loop
      vertex -20.4955 45.4992 -650
      vertex -54.3301 84.1025 -650
      vertex -45.6699 89.1025 -650
    endloop
  endfacet
  facet normal 1 -0 0
    outer loop
      vertex 100 -5 -450
      vertex 100 5 -650
      vertex 100 5 -450
    endloop
  endfacet
  facet normal 1 0 0
    outer loop
      vertex 100 5 -650
      vertex 100 -5 -450
      vertex 100 -5 -650
    endloop
  endfacet
  facet normal 0.970143 -0 0.242536
    outer loop
      vertex 50 0 -250
      vertex 100 5 -450
      vertex 50 5 -250
    endloop
  endfacet
  facet normal 0.970143 0 0.242536
    outer loop
      vertex 100 -5 -450
      vertex 50 0 -250
      vertex 50 -5 -250
    endloop
  endfacet
  facet normal 0.970143 0 0.242536
    outer loop
      vertex 50 0 -250
      vertex 100 -5 -450
      vertex 100 5 -450
    endloop
  endfacet
  facet normal 0.866025 0.5 -1.37398e-08
    outer loop
      vertex -20.4955 45.4992 -252.791
      vertex -45.6699 89.1025 -650
      vertex -20.6699 45.8013 -250
    endloop
  endfacet
  facet normal 0.866025 0.5 -4.15854e-09
    outer loop
      vertex -45.6699 89.1025 -650
      vertex -20.4955 45.4992 -252.791
      vertex -20.4955 45.4992 -650
    endloop
  endfacet
  facet normal 0.866026 0.5 -0
    outer loop
      vertex -20.4955 45.4992 -252.791
      vertex -20.6699 45.8013 -250
      vertex -20.4955 45.4992 -250
    endloop
  endfacet
  facet normal -0.866025 -0.5 -0
    outer loop
      vertex -29.05 40.3161 -254.482
      vertex -54.3301 84.1025 -650
      vertex -29.05 40.3161 -650
    endloop
  endfacet
  facet normal -0.866025 -0.500001 -1.30474e-07
    outer loop
      vertex -54.3301 84.1025 -650
      vertex -29.05 40.3161 -254.482
      vertex -29.3301 40.8013 -250
    endloop
  endfacet
  facet normal 0.866025 0.5 0
    outer loop
      vertex -20.6699 45.8013 -250
      vertex -45.6699 89.1025 -650
      vertex -45.6699 89.1025 -450
    endloop
  endfacet
  facet normal -0.866024 -0.500002 -0
    outer loop
      vertex -29.05 40.3161 -250
      vertex -29.3301 40.8013 -250
      vertex -29.05 40.3161 -254.482
    endloop
  endfacet
  facet normal -0.5 0.866025 0
    outer loop
      vertex -45.6699 89.1025 -650
      vertex -54.3301 84.1025 -450
      vertex -45.6699 89.1025 -450
    endloop
  endfacet
  facet normal -0.5 0.866025 0
    outer loop
      vertex -54.3301 84.1025 -450
      vertex -45.6699 89.1025 -650
      vertex -54.3301 84.1025 -650
    endloop
  endfacet
  facet normal -0.866025 -0.5 -0
    outer loop
      vertex -54.3301 84.1025 -450
      vertex -54.3301 84.1025 -650
      vertex -29.3301 40.8013 -250
    endloop
  endfacet
  facet normal -0.485071 0.840168 0.242536
    outer loop
      vertex -45.6699 89.1025 -450
      vertex -29.3301 40.8013 -250
      vertex -20.6699 45.8013 -250
    endloop
  endfacet
  facet normal -0.485071 0.840168 0.242536
    outer loop
      vertex -29.3301 40.8013 -250
      vertex -45.6699 89.1025 -450
      vertex -54.3301 84.1025 -450
    endloop
  endfacet
  facet normal -0.866025 0.5 0
    outer loop
      vertex -54.3301 -84.1025 -650
      vertex -29.05 -40.3161 -254.482
      vertex -29.05 -40.3161 -650
    endloop
  endfacet
  facet normal -0.866025 0.500001 -1.30474e-07
    outer loop
      vertex -29.05 -40.3161 -254.482
      vertex -54.3301 -84.1025 -650
      vertex -29.3301 -40.8013 -250
    endloop
  endfacet
  facet normal -0.866024 0.500002 0
    outer loop
      vertex -29.05 -40.3161 -254.482
      vertex -29.3301 -40.8013 -250
      vertex -29.05 -40.3161 -250
    endloop
  endfacet
  facet normal 0.866025 -0.5 -1.37398e-08
    outer loop
      vertex -45.6699 -89.1025 -650
      vertex -20.4955 -45.4992 -252.791
      vertex -20.6699 -45.8013 -250
    endloop
  endfacet
  facet normal 0.866025 -0.5 0
    outer loop
      vertex -20.4955 -45.4992 -252.791
      vertex -45.6699 -89.1025 -650
      vertex -20.4955 -45.4992 -650
    endloop
  endfacet
  facet normal -0.866025 0.5 0
    outer loop
      vertex -29.3301 -40.8013 -250
      vertex -54.3301 -84.1025 -650
      vertex -54.3301 -84.1025 -450
    endloop
  endfacet
  facet normal 0.866026 -0.5 0
    outer loop
      vertex -20.4955 -45.4992 -250
      vertex -20.6699 -45.8013 -250
      vertex -20.4955 -45.4992 -252.791
    endloop
  endfacet
  facet normal 0.866025 -0.5 0
    outer loop
      vertex -45.6699 -89.1025 -450
      vertex -45.6699 -89.1025 -650
      vertex -20.6699 -45.8013 -250
    endloop
  endfacet
  facet normal -0.5 -0.866025 0
    outer loop
      vertex -54.3301 -84.1025 -650
      vertex -45.6699 -89.1025 -450
      vertex -54.3301 -84.1025 -450
    endloop
  endfacet
  facet normal -0.5 -0.866025 -0
    outer loop
      vertex -45.6699 -89.1025 -450
      vertex -54.3301 -84.1025 -650
      vertex -45.6699 -89.1025 -650
    endloop
  endfacet
  facet normal -0.485071 -0.840168 0.242536
    outer loop
      vertex -45.6699 -89.1025 -450
      vertex -29.3301 -40.8013 -250
      vertex -54.3301 -84.1025 -450
    endloop
  endfacet
  facet normal -0.485071 -0.840168 0.242536
    outer loop
      vertex -29.3301 -40.8013 -250
      vertex -45.6699 -89.1025 -450
      vertex -20.6699 -45.8013 -250
    endloop
  endfacet
  facet normal 0.992115 0.125333 0
    outer loop
      vertex 48.4292 12.4345 350
      vertex 49.3684 5 -250
      vertex 48.4292 12.4345 -650
    endloop
  endfacet
  facet normal 0.992115 0.125333 -2.95389e-09
    outer loop
      vertex 50 0 350
      vertex 49.3684 5 -250
      vertex 48.4292 12.4345 350
    endloop
  endfacet
  facet normal 0.992115 0.125334 0
    outer loop
      vertex 49.3684 5 -250
      vertex 50 0 350
      vertex 50 0 -250
    endloop
  endfacet
  facet normal 0.992115 0.125333 0
    outer loop
      vertex 48.4292 12.4345 -650
      vertex 49.3684 5 -250
      vertex 49.3684 5 -650
    endloop
  endfacet
  facet normal -1 0 0
    outer loop
      vertex -49.6057 -6.26666 -650
      vertex -49.6057 6.26666 350
      vertex -49.6057 6.26666 -650
    endloop
  endfacet
  facet normal -1 -0 0
    outer loop
      vertex -49.6057 6.26666 350
      vertex -49.6057 -6.26666 -650
      vertex -49.6057 -6.26666 350
    endloop
  endfacet
  facet normal -0.0627907 0.998027 0
    outer loop
      vertex 3.13953 49.9013 -650
      vertex -9.36907 49.1144 350
      vertex 3.13953 49.9013 350
    endloop
  endfacet
  facet normal -0.0627907 0.998027 0
    outer loop
      vertex -9.36907 49.1144 350
      vertex 3.13953 49.9013 -650
      vertex -9.36907 49.1144 -650
    endloop
  endfacet
  facet normal 0.187381 -0.982287 0
    outer loop
      vertex 3.13953 -49.9013 -650
      vertex 15.4508 -47.5528 350
      vertex 3.13953 -49.9013 350
    endloop
  endfacet
  facet normal 0.187381 -0.982287 0
    outer loop
      vertex 15.4508 -47.5528 350
      vertex 3.13953 -49.9013 -650
      vertex 15.4508 -47.5528 -650
    endloop
  endfacet
  facet normal 0.637424 0.770513 -0
    outer loop
      vertex 36.4484 34.2274 -650
      vertex 26.7913 42.2164 350
      vertex 36.4484 34.2274 350
    endloop
  endfacet
  facet normal 0.637424 0.770513 0
    outer loop
      vertex 26.7913 42.2164 350
      vertex 36.4484 34.2274 -650
      vertex 26.7913 42.2164 -650
    endloop
  endfacet
  facet normal 0.425779 0.904827 -0
    outer loop
      vertex 26.7913 42.2164 -650
      vertex 15.4508 47.5528 350
      vertex 26.7913 42.2164 350
    endloop
  endfacet
  facet normal 0.425779 0.904827 0
    outer loop
      vertex 15.4508 47.5528 350
      vertex 26.7913 42.2164 -650
      vertex 15.4508 47.5528 -650
    endloop
  endfacet
  facet normal -0.728968 0.684547 0
    outer loop
      vertex -40.4509 29.3893 -650
      vertex -31.8712 38.5257 350
      vertex -31.8712 38.5257 -650
    endloop
  endfacet
  facet normal -0.728968 0.684547 0
    outer loop
      vertex -31.8712 38.5257 350
      vertex -40.4509 29.3893 -650
      vertex -40.4509 29.3893 350
    endloop
  endfacet
  facet normal -0.309017 0.951057 -2.06951e-09
    outer loop
      vertex -9.36907 49.1144 350
      vertex -20.4955 45.4992 -250
      vertex -21.289 45.2414 350
    endloop
  endfacet
  facet normal -0.309017 0.951057 0
    outer loop
      vertex -9.36907 49.1144 350
      vertex -20.4955 45.4992 -252.791
      vertex -20.4955 45.4992 -250
    endloop
  endfacet
  facet normal -0.309017 0.951057 0
    outer loop
      vertex -9.36907 49.1144 -650
      vertex -20.4955 45.4992 -252.791
      vertex -9.36907 49.1144 350
    endloop
  endfacet
  facet normal -0.309017 0.951057 1.48386e-09
    outer loop
      vertex -20.4955 45.4992 -252.791
      vertex -9.36907 49.1144 -650
      vertex -20.4955 45.4992 -650
    endloop
  endfacet
  facet normal -0.309016 0.951057 0
    outer loop
      vertex -21.289 45.2414 350
      vertex -20.4955 45.4992 -250
      vertex -21.289 45.2414 -250
    endloop
  endfacet
  facet normal -0.535827 -0.844328 -1.3897e-09
    outer loop
      vertex -31.8712 -38.5257 350
      vertex -29.05 -40.3161 -250
      vertex -21.289 -45.2414 350
    endloop
  endfacet
  facet normal -0.535827 -0.844328 0
    outer loop
      vertex -31.8712 -38.5257 350
      vertex -29.05 -40.3161 -254.482
      vertex -29.05 -40.3161 -250
    endloop
  endfacet
  facet normal -0.535827 -0.844328 0
    outer loop
      vertex -31.8712 -38.5257 -650
      vertex -29.05 -40.3161 -254.482
      vertex -31.8712 -38.5257 350
    endloop
  endfacet
  facet normal -0.535827 -0.844328 -0
    outer loop
      vertex -29.05 -40.3161 -254.482
      vertex -31.8712 -38.5257 -650
      vertex -29.05 -40.3161 -650
    endloop
  endfacet
  facet normal -0.535827 -0.844328 -0
    outer loop
      vertex -21.289 -45.2414 350
      vertex -29.05 -40.3161 -250
      vertex -21.289 -45.2414 -250
    endloop
  endfacet
  facet normal 0.809017 0.587785 0
    outer loop
      vertex 43.8153 24.0877 350
      vertex 36.4484 34.2274 -650
      vertex 36.4484 34.2274 350
    endloop
  endfacet
  facet normal 0.809017 0.587785 0
    outer loop
      vertex 36.4484 34.2274 -650
      vertex 43.8153 24.0877 350
      vertex 43.8153 24.0877 -650
    endloop
  endfacet
  facet normal 0.929777 0.368124 0
    outer loop
      vertex 48.4292 12.4345 350
      vertex 43.8153 24.0877 -650
      vertex 43.8153 24.0877 350
    endloop
  endfacet
  facet normal 0.929777 0.368124 0
    outer loop
      vertex 43.8153 24.0877 -650
      vertex 48.4292 12.4345 350
      vertex 48.4292 12.4345 -650
    endloop
  endfacet
  facet normal 0.187381 0.982287 -0
    outer loop
      vertex 15.4508 47.5528 -650
      vertex 3.13953 49.9013 350
      vertex 15.4508 47.5528 350
    endloop
  endfacet
  facet normal 0.187381 0.982287 0
    outer loop
      vertex 3.13953 49.9013 350
      vertex 15.4508 47.5528 -650
      vertex 3.13953 49.9013 -650
    endloop
  endfacet
  facet normal -0.876307 0.481753 0
    outer loop
      vertex -46.4888 18.4062 -650
      vertex -40.4509 29.3893 350
      vertex -40.4509 29.3893 -650
    endloop
  endfacet
  facet normal -0.876307 0.481753 0
    outer loop
      vertex -40.4509 29.3893 350
      vertex -46.4888 18.4062 -650
      vertex -46.4888 18.4062 350
    endloop
  endfacet
  facet normal -0.968583 0.24869 0
    outer loop
      vertex -49.6057 6.26666 -650
      vertex -46.4888 18.4062 350
      vertex -46.4888 18.4062 -650
    endloop
  endfacet
  facet normal -0.968583 0.24869 0
    outer loop
      vertex -46.4888 18.4062 350
      vertex -49.6057 6.26666 -650
      vertex -49.6057 6.26666 350
    endloop
  endfacet
  facet normal -0.535827 0.844328 0
    outer loop
      vertex -21.289 45.2414 -250
      vertex -31.8712 38.5257 350
      vertex -21.289 45.2414 350
    endloop
  endfacet
  facet normal -0.535827 0.844328 -1.89486e-09
    outer loop
      vertex -29.05 40.3161 -250
      vertex -31.8712 38.5257 350
      vertex -21.289 45.2414 -250
    endloop
  endfacet
  facet normal -0.535827 0.844328 0
    outer loop
      vertex -29.05 40.3161 -254.482
      vertex -31.8712 38.5257 350
      vertex -29.05 40.3161 -250
    endloop
  endfacet
  facet normal -0.535827 0.844328 0
    outer loop
      vertex -31.8712 38.5257 -650
      vertex -29.05 40.3161 -254.482
      vertex -29.05 40.3161 -650
    endloop
  endfacet
  facet normal -0.535827 0.844328 0
    outer loop
      vertex -29.05 40.3161 -254.482
      vertex -31.8712 38.5257 -650
      vertex -31.8712 38.5257 350
    endloop
  endfacet
  facet normal 0.992115 -0.125334 0
    outer loop
      vertex 50 0 350
      vertex 49.3684 -5 -250
      vertex 50 0 -250
    endloop
  endfacet
  facet normal 0.992115 -0.125333 -2.95389e-09
    outer loop
      vertex 48.4292 -12.4345 350
      vertex 49.3684 -5 -250
      vertex 50 0 350
    endloop
  endfacet
  facet normal 0.992115 -0.125333 0
    outer loop
      vertex 48.4292 -12.4345 -650
      vertex 49.3684 -5 -250
      vertex 48.4292 -12.4345 350
    endloop
  endfacet
  facet normal 0.992115 -0.125333 0
    outer loop
      vertex 49.3684 -5 -250
      vertex 48.4292 -12.4345 -650
      vertex 49.3684 -5 -650
    endloop
  endfacet
  facet normal -0.309016 -0.951057 0
    outer loop
      vertex -20.4955 -45.4992 -250
      vertex -21.289 -45.2414 350
      vertex -21.289 -45.2414 -250
    endloop
  endfacet
  facet normal -0.309017 -0.951057 -2.06951e-09
    outer loop
      vertex -21.289 -45.2414 350
      vertex -20.4955 -45.4992 -250
      vertex -9.36907 -49.1144 350
    endloop
  endfacet
  facet normal -0.309017 -0.951057 0
    outer loop
      vertex -20.4955 -45.4992 -252.791
      vertex -9.36907 -49.1144 350
      vertex -20.4955 -45.4992 -250
    endloop
  endfacet
  facet normal -0.309017 -0.951057 0
    outer loop
      vertex -9.36907 -49.1144 -650
      vertex -20.4955 -45.4992 -252.791
      vertex -20.4955 -45.4992 -650
    endloop
  endfacet
  facet normal -0.309017 -0.951057 0
    outer loop
      vertex -20.4955 -45.4992 -252.791
      vertex -9.36907 -49.1144 -650
      vertex -9.36907 -49.1144 350
    endloop
  endfacet
  facet normal -0.728968 -0.684547 0
    outer loop
      vertex -31.8712 -38.5257 -650
      vertex -40.4509 -29.3893 350
      vertex -40.4509 -29.3893 -650
    endloop
  endfacet
  facet normal -0.728968 -0.684547 0
    outer loop
      vertex -40.4509 -29.3893 350
      vertex -31.8712 -38.5257 -650
      vertex -31.8712 -38.5257 350
    endloop
  endfacet
  facet normal -0.968583 -0.24869 0
    outer loop
      vertex -46.4888 -18.4062 -650
      vertex -49.6057 -6.26666 350
      vertex -49.6057 -6.26666 -650
    endloop
  endfacet
  facet normal -0.968583 -0.24869 0
    outer loop
      vertex -49.6057 -6.26666 350
      vertex -46.4888 -18.4062 -650
      vertex -46.4888 -18.4062 350
    endloop
  endfacet
  facet normal 0.637424 -0.770513 0
    outer loop
      vertex 26.7913 -42.2164 -650
      vertex 36.4484 -34.2274 350
      vertex 26.7913 -42.2164 350
    endloop
  endfacet
  facet normal 0.637424 -0.770513 0
    outer loop
      vertex 36.4484 -34.2274 350
      vertex 26.7913 -42.2164 -650
      vertex 36.4484 -34.2274 -650
    endloop
  endfacet
  facet normal 0.929777 -0.368124 0
    outer loop
      vertex 43.8153 -24.0877 350
      vertex 48.4292 -12.4345 -650
      vertex 48.4292 -12.4345 350
    endloop
  endfacet
  facet normal 0.929777 -0.368124 0
    outer loop
      vertex 48.4292 -12.4345 -650
      vertex 43.8153 -24.0877 350
      vertex 43.8153 -24.0877 -650
    endloop
  endfacet
  facet normal 0.809017 -0.587785 0
    outer loop
      vertex 36.4484 -34.2274 350
      vertex 43.8153 -24.0877 -650
      vertex 43.8153 -24.0877 350
    endloop
  endfacet
  facet normal 0.809017 -0.587785 0
    outer loop
      vertex 43.8153 -24.0877 -650
      vertex 36.4484 -34.2274 350
      vertex 36.4484 -34.2274 -650
    endloop
  endfacet
  facet normal 0.425779 -0.904827 0
    outer loop
      vertex 15.4508 -47.5528 -650
      vertex 26.7913 -42.2164 350
      vertex 15.4508 -47.5528 350
    endloop
  endfacet
  facet normal 0.425779 -0.904827 0
    outer loop
      vertex 26.7913 -42.2164 350
      vertex 15.4508 -47.5528 -650
      vertex 26.7913 -42.2164 -650
    endloop
  endfacet
  facet normal -0.0627907 -0.998027 0
    outer loop
      vertex -9.36907 -49.1144 -650
      vertex 3.13953 -49.9013 350
      vertex -9.36907 -49.1144 350
    endloop
  endfacet
  facet normal -0.0627907 -0.998027 -0
    outer loop
      vertex 3.13953 -49.9013 350
      vertex -9.36907 -49.1144 -650
      vertex 3.13953 -49.9013 -650
    endloop
  endfacet
  facet normal -0.876307 -0.481753 0
    outer loop
      vertex -40.4509 -29.3893 -650
      vertex -46.4888 -18.4062 350
      vertex -46.4888 -18.4062 -650
    endloop
  endfacet
  facet normal -0.876307 -0.481753 0
    outer loop
      vertex -46.4888 -18.4062 350
      vertex -40.4509 -29.3893 -650
      vertex -40.4509 -29.3893 350
    endloop
  endfacet
  facet normal 0.978824 0.123654 0.163137
    outer loop
      vertex 48.4292 12.4345 350
      vertex 0 0 650
      vertex 50 0 350
    endloop
  endfacet
  facet normal -0.955607 -0.245358 0.163137
    outer loop
      vertex 0 0 650
      vertex -49.6057 -6.26666 350
      vertex -46.4888 -18.4062 350
    endloop
  endfacet
  facet normal -0.304877 0.938316 0.163137
    outer loop
      vertex -9.36907 49.1144 350
      vertex -21.289 45.2414 350
      vertex 0 0 650
    endloop
  endfacet
  facet normal 0.184871 -0.969128 0.163137
    outer loop
      vertex 15.4508 -47.5528 350
      vertex 0 0 650
      vertex 3.13953 -49.9013 350
    endloop
  endfacet
  facet normal -0.864567 0.4753 0.163137
    outer loop
      vertex -40.4509 29.3893 350
      vertex -46.4888 18.4062 350
      vertex 0 0 650
    endloop
  endfacet
  facet normal 0.420075 0.892705 0.163137
    outer loop
      vertex 15.4508 47.5528 350
      vertex 0 0 650
      vertex 26.7913 42.2164 350
    endloop
  endfacet
  facet normal -0.528649 -0.833017 0.163137
    outer loop
      vertex 0 0 650
      vertex -31.8712 -38.5257 350
      vertex -21.289 -45.2414 350
    endloop
  endfacet
  facet normal 0.798179 -0.579911 0.163137
    outer loop
      vertex 43.8153 -24.0877 350
      vertex 0 0 650
      vertex 36.4484 -34.2274 350
    endloop
  endfacet
  facet normal -0.528649 0.833017 0.163137
    outer loop
      vertex -21.289 45.2414 350
      vertex -31.8712 38.5257 350
      vertex 0 0 650
    endloop
  endfacet
  facet normal -0.986603 0 0.163137
    outer loop
      vertex -49.6057 6.26666 350
      vertex -49.6057 -6.26666 350
      vertex 0 0 650
    endloop
  endfacet
  facet normal 0.184871 0.969128 0.163137
    outer loop
      vertex 3.13953 49.9013 350
      vertex 0 0 650
      vertex 15.4508 47.5528 350
    endloop
  endfacet
  facet normal 0.628885 0.760191 0.163137
    outer loop
      vertex 26.7913 42.2164 350
      vertex 0 0 650
      vertex 36.4484 34.2274 350
    endloop
  endfacet
  facet normal -0.719203 -0.675377 0.163137
    outer loop
      vertex 0 0 650
      vertex -40.4509 -29.3893 350
      vertex -31.8712 -38.5257 350
    endloop
  endfacet
  facet normal -0.304877 -0.938316 0.163137
    outer loop
      vertex 0 0 650
      vertex -21.289 -45.2414 350
      vertex -9.36907 -49.1144 350
    endloop
  endfacet
  facet normal 0.420075 -0.892705 0.163137
    outer loop
      vertex 26.7913 -42.2164 350
      vertex 0 0 650
      vertex 15.4508 -47.5528 350
    endloop
  endfacet
  facet normal 0.917321 -0.363193 0.163137
    outer loop
      vertex 48.4292 -12.4345 350
      vertex 0 0 650
      vertex 43.8153 -24.0877 350
    endloop
  endfacet
  facet normal -0.719203 0.675377 0.163137
    outer loop
      vertex -31.8712 38.5257 350
      vertex -40.4509 29.3893 350
      vertex 0 0 650
    endloop
  endfacet
  facet normal -0.955607 0.245358 0.163137
    outer loop
      vertex -46.4888 18.4062 350
      vertex -49.6057 6.26666 350
      vertex 0 0 650
    endloop
  endfacet
  facet normal -0.0619495 0.984657 0.163137
    outer loop
      vertex 3.13953 49.9013 350
      vertex -9.36907 49.1144 350
      vertex 0 0 650
    endloop
  endfacet
  facet normal 0.798179 0.579911 0.163137
    outer loop
      vertex 36.4484 34.2274 350
      vertex 0 0 650
      vertex 43.8153 24.0877 350
    endloop
  endfacet
  facet normal 0.917321 0.363193 0.163137
    outer loop
      vertex 43.8153 24.0877 350
      vertex 0 0 650
      vertex 48.4292 12.4345 350
    endloop
  endfacet
  facet normal -0.864567 -0.4753 0.163137
    outer loop
      vertex 0 0 650
      vertex -46.4888 -18.4062 350
      vertex -40.4509 -29.3893 350
    endloop
  endfacet
  facet normal -0.0619495 -0.984657 0.163137
    outer loop
      vertex 0 0 650
      vertex -9.36907 -49.1144 350
      vertex 3.13953 -49.9013 350
    endloop
  endfacet
  facet normal 0.628885 -0.760191 0.163137
    outer loop
      vertex 36.4484 -34.2274 350
      vertex 0 0 650
      vertex 26.7913 -42.2164 350
    endloop
  endfacet
  facet normal 0.978824 -0.123654 0.163137
    outer loop
      vertex 50 0 350
      vertex 0 0 650
      vertex 48.4292 -12.4345 350
    endloop
  endfacet
endsolid OpenSCAD_Model
